<mxfile host="Electron" modified="2024-05-07T07:58:00.537Z" agent="Mozilla/5.0 (Macintosh; Intel Mac OS X 10_15_7) AppleWebKit/537.36 (KHTML, like Gecko) draw.io/24.1.0 Chrome/120.0.6099.109 Electron/28.1.0 Safari/537.36" etag="AI93fuRYhYvPlebPTKC9" version="24.1.0" type="device">
  <diagram name="第 1 页" id="zRFeQZLbWUV8IuuXwQ8T">
    <mxGraphModel dx="3728" dy="1162" grid="1" gridSize="10" guides="1" tooltips="1" connect="1" arrows="1" fold="1" page="1" pageScale="1" pageWidth="827" pageHeight="1169" math="0" shadow="0">
      <root>
        <mxCell id="0" />
        <mxCell id="1" parent="0" />
        <mxCell id="hW-1sT3CEzoyaFXoh7Na-1" value="订单状态" style="swimlane;fontStyle=0;childLayout=stackLayout;horizontal=1;startSize=26;fillColor=#f8cecc;horizontalStack=0;resizeParent=1;resizeParentMax=0;resizeLast=0;collapsible=1;marginBottom=0;strokeColor=#b85450;" parent="1" vertex="1">
          <mxGeometry x="330" y="110" width="140" height="52" as="geometry">
            <mxRectangle x="330" y="110" width="80" height="26" as="alternateBounds" />
          </mxGeometry>
        </mxCell>
        <mxCell id="hW-1sT3CEzoyaFXoh7Na-2" style="edgeStyle=orthogonalEdgeStyle;rounded=0;orthogonalLoop=1;jettySize=auto;html=1;entryX=0.5;entryY=1;entryDx=0;entryDy=0;endArrow=none;endFill=0;" parent="1" target="hW-1sT3CEzoyaFXoh7Na-1" edge="1">
          <mxGeometry relative="1" as="geometry">
            <mxPoint x="400" y="370" as="sourcePoint" />
          </mxGeometry>
        </mxCell>
        <mxCell id="hW-1sT3CEzoyaFXoh7Na-3" value="0..*" style="text;html=1;align=center;verticalAlign=middle;resizable=0;points=[];autosize=1;" parent="1" vertex="1">
          <mxGeometry x="405" y="340" width="30" height="20" as="geometry" />
        </mxCell>
        <mxCell id="hW-1sT3CEzoyaFXoh7Na-4" value="1" style="text;html=1;align=center;verticalAlign=middle;resizable=0;points=[];autosize=1;" parent="1" vertex="1">
          <mxGeometry x="414" y="170" width="20" height="20" as="geometry" />
        </mxCell>
        <mxCell id="hW-1sT3CEzoyaFXoh7Na-5" value="1" style="text;html=1;align=center;verticalAlign=middle;resizable=0;points=[];autosize=1;" parent="1" vertex="1">
          <mxGeometry x="120" y="450" width="20" height="20" as="geometry" />
        </mxCell>
        <mxCell id="hW-1sT3CEzoyaFXoh7Na-6" value="0..*" style="text;html=1;align=center;verticalAlign=middle;resizable=0;points=[];autosize=1;" parent="1" vertex="1">
          <mxGeometry x="285" y="450" width="30" height="20" as="geometry" />
        </mxCell>
        <mxCell id="hW-1sT3CEzoyaFXoh7Na-7" style="edgeStyle=none;rounded=0;orthogonalLoop=1;jettySize=auto;html=1;startArrow=none;startFill=0;startSize=20;endArrow=none;endFill=0;endSize=26;" parent="1" source="hW-1sT3CEzoyaFXoh7Na-8" target="hW-1sT3CEzoyaFXoh7Na-32" edge="1">
          <mxGeometry relative="1" as="geometry" />
        </mxCell>
        <mxCell id="hW-1sT3CEzoyaFXoh7Na-8" value="订单" style="swimlane;fontStyle=0;childLayout=stackLayout;horizontal=1;startSize=26;fillColor=#f8cecc;horizontalStack=0;resizeParent=1;resizeParentMax=0;resizeLast=0;collapsible=1;marginBottom=0;strokeColor=#b85450;" parent="1" vertex="1">
          <mxGeometry x="330" y="370" width="140" height="156" as="geometry" />
        </mxCell>
        <mxCell id="hW-1sT3CEzoyaFXoh7Na-9" value="+ 创建时间" style="text;strokeColor=none;fillColor=none;align=left;verticalAlign=top;spacingLeft=4;spacingRight=4;overflow=hidden;rotatable=0;points=[[0,0.5],[1,0.5]];portConstraint=eastwest;" parent="hW-1sT3CEzoyaFXoh7Na-8" vertex="1">
          <mxGeometry y="26" width="140" height="26" as="geometry" />
        </mxCell>
        <mxCell id="hW-1sT3CEzoyaFXoh7Na-10" value="+ 订单编号" style="text;strokeColor=none;fillColor=none;align=left;verticalAlign=top;spacingLeft=4;spacingRight=4;overflow=hidden;rotatable=0;points=[[0,0.5],[1,0.5]];portConstraint=eastwest;" parent="hW-1sT3CEzoyaFXoh7Na-8" vertex="1">
          <mxGeometry y="52" width="140" height="26" as="geometry" />
        </mxCell>
        <mxCell id="hW-1sT3CEzoyaFXoh7Na-11" value="+ 发票信息" style="text;strokeColor=none;fillColor=none;align=left;verticalAlign=top;spacingLeft=4;spacingRight=4;overflow=hidden;rotatable=0;points=[[0,0.5],[1,0.5]];portConstraint=eastwest;" parent="hW-1sT3CEzoyaFXoh7Na-8" vertex="1">
          <mxGeometry y="78" width="140" height="26" as="geometry" />
        </mxCell>
        <mxCell id="hW-1sT3CEzoyaFXoh7Na-12" value="+ 支付方式" style="text;strokeColor=none;fillColor=none;align=left;verticalAlign=top;spacingLeft=4;spacingRight=4;overflow=hidden;rotatable=0;points=[[0,0.5],[1,0.5]];portConstraint=eastwest;" parent="hW-1sT3CEzoyaFXoh7Na-8" vertex="1">
          <mxGeometry y="104" width="140" height="26" as="geometry" />
        </mxCell>
        <mxCell id="hW-1sT3CEzoyaFXoh7Na-13" value="+ 状态" style="text;strokeColor=none;fillColor=none;align=left;verticalAlign=top;spacingLeft=4;spacingRight=4;overflow=hidden;rotatable=0;points=[[0,0.5],[1,0.5]];portConstraint=eastwest;" parent="hW-1sT3CEzoyaFXoh7Na-8" vertex="1">
          <mxGeometry y="130" width="140" height="26" as="geometry" />
        </mxCell>
        <mxCell id="hW-1sT3CEzoyaFXoh7Na-14" style="edgeStyle=orthogonalEdgeStyle;rounded=0;orthogonalLoop=1;jettySize=auto;html=1;entryX=0;entryY=0.808;entryDx=0;entryDy=0;entryPerimeter=0;endArrow=none;endFill=0;" parent="1" target="hW-1sT3CEzoyaFXoh7Na-10" edge="1">
          <mxGeometry relative="1" as="geometry">
            <mxPoint x="110" y="443.00800000000004" as="sourcePoint" />
          </mxGeometry>
        </mxCell>
        <mxCell id="hW-1sT3CEzoyaFXoh7Na-15" value="收件人" style="swimlane;fontStyle=0;childLayout=stackLayout;horizontal=1;startSize=26;fillColor=#f8cecc;horizontalStack=0;resizeParent=1;resizeParentMax=0;resizeLast=0;collapsible=1;marginBottom=0;strokeColor=#b85450;" parent="1" vertex="1">
          <mxGeometry x="-30" y="370" width="140" height="182" as="geometry" />
        </mxCell>
        <mxCell id="hW-1sT3CEzoyaFXoh7Na-16" value="+ 固定电话" style="text;strokeColor=none;fillColor=none;align=left;verticalAlign=top;spacingLeft=4;spacingRight=4;overflow=hidden;rotatable=0;points=[[0,0.5],[1,0.5]];portConstraint=eastwest;" parent="hW-1sT3CEzoyaFXoh7Na-15" vertex="1">
          <mxGeometry y="26" width="140" height="26" as="geometry" />
        </mxCell>
        <mxCell id="hW-1sT3CEzoyaFXoh7Na-17" value="+ 收货人" style="text;strokeColor=none;fillColor=none;align=left;verticalAlign=top;spacingLeft=4;spacingRight=4;overflow=hidden;rotatable=0;points=[[0,0.5],[1,0.5]];portConstraint=eastwest;" parent="hW-1sT3CEzoyaFXoh7Na-15" vertex="1">
          <mxGeometry y="52" width="140" height="26" as="geometry" />
        </mxCell>
        <mxCell id="hW-1sT3CEzoyaFXoh7Na-18" value="+ 手机号码" style="text;strokeColor=none;fillColor=none;align=left;verticalAlign=top;spacingLeft=4;spacingRight=4;overflow=hidden;rotatable=0;points=[[0,0.5],[1,0.5]];portConstraint=eastwest;" parent="hW-1sT3CEzoyaFXoh7Na-15" vertex="1">
          <mxGeometry y="78" width="140" height="26" as="geometry" />
        </mxCell>
        <mxCell id="hW-1sT3CEzoyaFXoh7Na-19" value="+ 所在地区" style="text;strokeColor=none;fillColor=none;align=left;verticalAlign=top;spacingLeft=4;spacingRight=4;overflow=hidden;rotatable=0;points=[[0,0.5],[1,0.5]];portConstraint=eastwest;" parent="hW-1sT3CEzoyaFXoh7Na-15" vertex="1">
          <mxGeometry y="104" width="140" height="26" as="geometry" />
        </mxCell>
        <mxCell id="hW-1sT3CEzoyaFXoh7Na-20" value="+ 详细地址" style="text;strokeColor=none;fillColor=none;align=left;verticalAlign=top;spacingLeft=4;spacingRight=4;overflow=hidden;rotatable=0;points=[[0,0.5],[1,0.5]];portConstraint=eastwest;" parent="hW-1sT3CEzoyaFXoh7Na-15" vertex="1">
          <mxGeometry y="130" width="140" height="26" as="geometry" />
        </mxCell>
        <mxCell id="hW-1sT3CEzoyaFXoh7Na-21" value="+ 邮箱地址" style="text;strokeColor=none;fillColor=none;align=left;verticalAlign=top;spacingLeft=4;spacingRight=4;overflow=hidden;rotatable=0;points=[[0,0.5],[1,0.5]];portConstraint=eastwest;" parent="hW-1sT3CEzoyaFXoh7Na-15" vertex="1">
          <mxGeometry y="156" width="140" height="26" as="geometry" />
        </mxCell>
        <mxCell id="hW-1sT3CEzoyaFXoh7Na-22" style="edgeStyle=none;rounded=0;orthogonalLoop=1;jettySize=auto;html=1;entryX=1;entryY=0.077;entryDx=0;entryDy=0;entryPerimeter=0;startArrow=none;startFill=0;startSize=20;endArrow=diamondThin;endFill=0;endSize=26;" parent="1" source="hW-1sT3CEzoyaFXoh7Na-24" target="hW-1sT3CEzoyaFXoh7Na-9" edge="1">
          <mxGeometry relative="1" as="geometry" />
        </mxCell>
        <mxCell id="hW-1sT3CEzoyaFXoh7Na-23" style="edgeStyle=none;rounded=0;orthogonalLoop=1;jettySize=auto;html=1;startArrow=none;startFill=0;startSize=20;endArrow=none;endFill=0;endSize=26;" parent="1" source="hW-1sT3CEzoyaFXoh7Na-24" target="hW-1sT3CEzoyaFXoh7Na-29" edge="1">
          <mxGeometry relative="1" as="geometry" />
        </mxCell>
        <mxCell id="hW-1sT3CEzoyaFXoh7Na-24" value="送货单" style="swimlane;fontStyle=0;childLayout=stackLayout;horizontal=1;startSize=26;fillColor=#fff2cc;horizontalStack=0;resizeParent=1;resizeParentMax=0;resizeLast=0;collapsible=1;marginBottom=0;strokeColor=#d6b656;" parent="1" vertex="1">
          <mxGeometry x="630" y="370" width="140" height="52" as="geometry" />
        </mxCell>
        <mxCell id="hW-1sT3CEzoyaFXoh7Na-25" value="1..*" style="text;html=1;align=center;verticalAlign=middle;resizable=0;points=[];autosize=1;" parent="1" vertex="1">
          <mxGeometry x="595" y="400" width="30" height="20" as="geometry" />
        </mxCell>
        <mxCell id="hW-1sT3CEzoyaFXoh7Na-26" style="rounded=0;orthogonalLoop=1;jettySize=auto;html=1;entryX=0.993;entryY=0.077;entryDx=0;entryDy=0;entryPerimeter=0;endArrow=diamondThin;endFill=0;endSize=26;startSize=20;" parent="1" source="hW-1sT3CEzoyaFXoh7Na-27" edge="1">
          <mxGeometry relative="1" as="geometry">
            <mxPoint x="770" y="396.00199999999995" as="targetPoint" />
          </mxGeometry>
        </mxCell>
        <mxCell id="hW-1sT3CEzoyaFXoh7Na-27" value="商品" style="swimlane;fontStyle=0;childLayout=stackLayout;horizontal=1;startSize=26;fillColor=#fff2cc;horizontalStack=0;resizeParent=1;resizeParentMax=0;resizeLast=0;collapsible=1;marginBottom=0;strokeColor=#d6b656;" parent="1" vertex="1">
          <mxGeometry x="930.98" y="368" width="140" height="52" as="geometry" />
        </mxCell>
        <mxCell id="hW-1sT3CEzoyaFXoh7Na-28" value="1..*" style="text;html=1;align=center;verticalAlign=middle;resizable=0;points=[];autosize=1;" parent="1" vertex="1">
          <mxGeometry x="895" y="400" width="30" height="20" as="geometry" />
        </mxCell>
        <mxCell id="hW-1sT3CEzoyaFXoh7Na-29" value="送货状态" style="swimlane;fontStyle=0;childLayout=stackLayout;horizontal=1;startSize=26;fillColor=#fff2cc;horizontalStack=0;resizeParent=1;resizeParentMax=0;resizeLast=0;collapsible=1;marginBottom=0;strokeColor=#d6b656;" parent="1" vertex="1">
          <mxGeometry x="630" y="610" width="140" height="52" as="geometry" />
        </mxCell>
        <mxCell id="hW-1sT3CEzoyaFXoh7Na-30" value="0..*" style="text;html=1;align=center;verticalAlign=middle;resizable=0;points=[];autosize=1;" parent="1" vertex="1">
          <mxGeometry x="705" y="430" width="30" height="20" as="geometry" />
        </mxCell>
        <mxCell id="hW-1sT3CEzoyaFXoh7Na-31" value="1" style="text;html=1;align=center;verticalAlign=middle;resizable=0;points=[];autosize=1;" parent="1" vertex="1">
          <mxGeometry x="710" y="590" width="20" height="20" as="geometry" />
        </mxCell>
        <mxCell id="hW-1sT3CEzoyaFXoh7Na-32" value="支付方式" style="swimlane;fontStyle=0;childLayout=stackLayout;horizontal=1;startSize=26;fillColor=#d5e8d4;horizontalStack=0;resizeParent=1;resizeParentMax=0;resizeLast=0;collapsible=1;marginBottom=0;strokeColor=#82b366;" parent="1" vertex="1">
          <mxGeometry x="330" y="620" width="140" height="52" as="geometry" />
        </mxCell>
        <mxCell id="hW-1sT3CEzoyaFXoh7Na-33" value="0..*" style="text;html=1;align=center;verticalAlign=middle;resizable=0;points=[];autosize=1;" parent="1" vertex="1">
          <mxGeometry x="405" y="532" width="30" height="20" as="geometry" />
        </mxCell>
        <mxCell id="hW-1sT3CEzoyaFXoh7Na-34" value="1..*" style="text;html=1;align=center;verticalAlign=middle;resizable=0;points=[];autosize=1;" parent="1" vertex="1">
          <mxGeometry x="405" y="590" width="30" height="20" as="geometry" />
        </mxCell>
        <mxCell id="hW-1sT3CEzoyaFXoh7Na-35" style="edgeStyle=none;rounded=0;orthogonalLoop=1;jettySize=auto;html=1;entryX=0.5;entryY=1;entryDx=0;entryDy=0;startArrow=none;startFill=0;startSize=20;endArrow=block;endFill=0;endSize=17;" parent="1" source="hW-1sT3CEzoyaFXoh7Na-36" target="hW-1sT3CEzoyaFXoh7Na-32" edge="1">
          <mxGeometry relative="1" as="geometry" />
        </mxCell>
        <mxCell id="hW-1sT3CEzoyaFXoh7Na-36" value="货到付款" style="swimlane;fontStyle=0;childLayout=stackLayout;horizontal=1;startSize=26;fillColor=#d5e8d4;horizontalStack=0;resizeParent=1;resizeParentMax=0;resizeLast=0;collapsible=1;marginBottom=0;strokeColor=#82b366;" parent="1" vertex="1">
          <mxGeometry x="330" y="750" width="140" height="52" as="geometry" />
        </mxCell>
        <mxCell id="hW-1sT3CEzoyaFXoh7Na-37" style="edgeStyle=none;rounded=0;orthogonalLoop=1;jettySize=auto;html=1;entryX=0.75;entryY=1;entryDx=0;entryDy=0;startArrow=none;startFill=0;startSize=20;endArrow=block;endFill=0;endSize=17;" parent="1" source="hW-1sT3CEzoyaFXoh7Na-38" target="hW-1sT3CEzoyaFXoh7Na-32" edge="1">
          <mxGeometry relative="1" as="geometry" />
        </mxCell>
        <mxCell id="hW-1sT3CEzoyaFXoh7Na-38" value="公司转账" style="swimlane;fontStyle=0;childLayout=stackLayout;horizontal=1;startSize=26;fillColor=#d5e8d4;horizontalStack=0;resizeParent=1;resizeParentMax=0;resizeLast=0;collapsible=1;marginBottom=0;strokeColor=#82b366;" parent="1" vertex="1">
          <mxGeometry x="500" y="750" width="140" height="52" as="geometry" />
        </mxCell>
        <mxCell id="hW-1sT3CEzoyaFXoh7Na-39" style="edgeStyle=none;rounded=0;orthogonalLoop=1;jettySize=auto;html=1;exitX=0.25;exitY=0;exitDx=0;exitDy=0;startArrow=none;startFill=0;startSize=20;endArrow=block;endFill=0;endSize=17;" parent="1" source="hW-1sT3CEzoyaFXoh7Na-40" edge="1">
          <mxGeometry relative="1" as="geometry">
            <mxPoint x="460" y="670" as="targetPoint" />
          </mxGeometry>
        </mxCell>
        <mxCell id="hW-1sT3CEzoyaFXoh7Na-40" value="邮局汇款" style="swimlane;fontStyle=0;childLayout=stackLayout;horizontal=1;startSize=26;fillColor=#d5e8d4;horizontalStack=0;resizeParent=1;resizeParentMax=0;resizeLast=0;collapsible=1;marginBottom=0;strokeColor=#82b366;" parent="1" vertex="1">
          <mxGeometry x="670" y="750" width="140" height="52" as="geometry" />
        </mxCell>
        <mxCell id="hW-1sT3CEzoyaFXoh7Na-41" style="edgeStyle=orthogonalEdgeStyle;rounded=0;orthogonalLoop=1;jettySize=auto;html=1;entryX=0;entryY=0.5;entryDx=0;entryDy=0;startArrow=none;startFill=0;startSize=20;endArrow=block;endFill=0;endSize=17;exitX=0.5;exitY=0;exitDx=0;exitDy=0;" parent="1" source="hW-1sT3CEzoyaFXoh7Na-42" target="hW-1sT3CEzoyaFXoh7Na-32" edge="1">
          <mxGeometry relative="1" as="geometry" />
        </mxCell>
        <mxCell id="hW-1sT3CEzoyaFXoh7Na-42" value="在线支付" style="swimlane;fontStyle=0;childLayout=stackLayout;horizontal=1;startSize=26;fillColor=#d5e8d4;horizontalStack=0;resizeParent=1;resizeParentMax=0;resizeLast=0;collapsible=1;marginBottom=0;strokeColor=#82b366;" parent="1" vertex="1">
          <mxGeometry x="-20" y="750" width="140" height="52" as="geometry" />
        </mxCell>
        <mxCell id="hW-1sT3CEzoyaFXoh7Na-43" style="edgeStyle=orthogonalEdgeStyle;rounded=0;orthogonalLoop=1;jettySize=auto;html=1;entryX=0.25;entryY=1;entryDx=0;entryDy=0;startArrow=none;startFill=0;startSize=20;endArrow=block;endFill=0;endSize=17;" parent="1" source="hW-1sT3CEzoyaFXoh7Na-44" target="hW-1sT3CEzoyaFXoh7Na-42" edge="1">
          <mxGeometry relative="1" as="geometry">
            <Array as="points">
              <mxPoint x="-160" y="840" />
              <mxPoint x="15" y="840" />
            </Array>
          </mxGeometry>
        </mxCell>
        <mxCell id="hW-1sT3CEzoyaFXoh7Na-44" value="支付宝" style="swimlane;fontStyle=0;childLayout=stackLayout;horizontal=1;startSize=26;fillColor=#d5e8d4;horizontalStack=0;resizeParent=1;resizeParentMax=0;resizeLast=0;collapsible=1;marginBottom=0;strokeColor=#82b366;" parent="1" vertex="1">
          <mxGeometry x="-230" y="860" width="140" height="52" as="geometry" />
        </mxCell>
        <mxCell id="hW-1sT3CEzoyaFXoh7Na-45" style="edgeStyle=orthogonalEdgeStyle;rounded=0;orthogonalLoop=1;jettySize=auto;html=1;startArrow=none;startFill=0;startSize=20;endArrow=block;endFill=0;endSize=17;" parent="1" source="hW-1sT3CEzoyaFXoh7Na-46" edge="1">
          <mxGeometry relative="1" as="geometry">
            <mxPoint x="40" y="800" as="targetPoint" />
          </mxGeometry>
        </mxCell>
        <mxCell id="hW-1sT3CEzoyaFXoh7Na-46" value="微信支付" style="swimlane;fontStyle=0;childLayout=stackLayout;horizontal=1;startSize=26;fillColor=#d5e8d4;horizontalStack=0;resizeParent=1;resizeParentMax=0;resizeLast=0;collapsible=1;marginBottom=0;strokeColor=#82b366;" parent="1" vertex="1">
          <mxGeometry x="-30" y="860" width="140" height="52" as="geometry" />
        </mxCell>
        <mxCell id="hW-1sT3CEzoyaFXoh7Na-47" style="edgeStyle=orthogonalEdgeStyle;rounded=0;orthogonalLoop=1;jettySize=auto;html=1;startArrow=none;startFill=0;startSize=20;endArrow=block;endFill=0;endSize=17;" parent="1" source="hW-1sT3CEzoyaFXoh7Na-48" edge="1">
          <mxGeometry relative="1" as="geometry">
            <mxPoint x="110" y="800" as="targetPoint" />
            <Array as="points">
              <mxPoint x="440" y="830" />
              <mxPoint x="110" y="830" />
            </Array>
          </mxGeometry>
        </mxCell>
        <mxCell id="hW-1sT3CEzoyaFXoh7Na-48" value="..." style="swimlane;fontStyle=0;childLayout=stackLayout;horizontal=1;startSize=26;fillColor=#d5e8d4;horizontalStack=0;resizeParent=1;resizeParentMax=0;resizeLast=0;collapsible=1;marginBottom=0;strokeColor=#82b366;" parent="1" vertex="1">
          <mxGeometry x="370" y="860" width="140" height="52" as="geometry" />
        </mxCell>
        <mxCell id="hW-1sT3CEzoyaFXoh7Na-49" style="edgeStyle=orthogonalEdgeStyle;rounded=0;orthogonalLoop=1;jettySize=auto;html=1;startArrow=none;startFill=0;startSize=20;endArrow=block;endFill=0;endSize=17;" parent="1" source="hW-1sT3CEzoyaFXoh7Na-50" edge="1">
          <mxGeometry relative="1" as="geometry">
            <mxPoint x="110" y="800" as="targetPoint" />
            <Array as="points">
              <mxPoint x="240" y="830" />
              <mxPoint x="110" y="830" />
            </Array>
          </mxGeometry>
        </mxCell>
        <mxCell id="hW-1sT3CEzoyaFXoh7Na-50" value="京东支付" style="swimlane;fontStyle=0;childLayout=stackLayout;horizontal=1;startSize=26;fillColor=#d5e8d4;horizontalStack=0;resizeParent=1;resizeParentMax=0;resizeLast=0;collapsible=1;marginBottom=0;strokeColor=#82b366;" parent="1" vertex="1">
          <mxGeometry x="170" y="860" width="140" height="52" as="geometry" />
        </mxCell>
        <mxCell id="hW-1sT3CEzoyaFXoh7Na-53" value="" style="rounded=0;whiteSpace=wrap;html=1;fillColor=#f8cecc;strokeColor=#b85450;" parent="1" vertex="1">
          <mxGeometry x="-220" y="140" width="120" height="10" as="geometry" />
        </mxCell>
        <mxCell id="hW-1sT3CEzoyaFXoh7Na-54" value="订单相关类" style="text;html=1;align=center;verticalAlign=middle;resizable=0;points=[];autosize=1;strokeColor=none;fillColor=none;" parent="1" vertex="1">
          <mxGeometry x="-200" y="110" width="80" height="30" as="geometry" />
        </mxCell>
        <mxCell id="hW-1sT3CEzoyaFXoh7Na-55" value="" style="rounded=0;whiteSpace=wrap;html=1;fillColor=#d5e8d4;strokeColor=#82b366;" parent="1" vertex="1">
          <mxGeometry x="-220" y="190" width="120" height="10" as="geometry" />
        </mxCell>
        <mxCell id="hW-1sT3CEzoyaFXoh7Na-56" value="支付方式相关类" style="text;html=1;align=center;verticalAlign=middle;resizable=0;points=[];autosize=1;strokeColor=none;fillColor=none;" parent="1" vertex="1">
          <mxGeometry x="-215" y="160" width="110" height="30" as="geometry" />
        </mxCell>
        <mxCell id="hW-1sT3CEzoyaFXoh7Na-57" value="" style="rounded=0;whiteSpace=wrap;html=1;fillColor=#fff2cc;strokeColor=#d6b656;" parent="1" vertex="1">
          <mxGeometry x="-220" y="250" width="120" height="10" as="geometry" />
        </mxCell>
        <mxCell id="hW-1sT3CEzoyaFXoh7Na-58" value="送货相关类" style="text;html=1;align=center;verticalAlign=middle;resizable=0;points=[];autosize=1;strokeColor=none;fillColor=none;" parent="1" vertex="1">
          <mxGeometry x="-200" y="220" width="80" height="30" as="geometry" />
        </mxCell>
        <mxCell id="hW-1sT3CEzoyaFXoh7Na-59" value="购物网站订单业务类图" style="shape=umlFrame;whiteSpace=wrap;html=1;pointerEvents=0;width=170;height=40;" parent="1" vertex="1">
          <mxGeometry x="-250" y="60" width="1370" height="920" as="geometry" />
        </mxCell>
        <mxCell id="WMJdWiDeaOOaA5LN9KcR-1" value="订单状态" style="swimlane;fontStyle=1;align=center;verticalAlign=top;childLayout=stackLayout;horizontal=1;startSize=26;horizontalStack=0;resizeParent=1;resizeParentMax=0;resizeLast=0;collapsible=1;marginBottom=0;whiteSpace=wrap;html=1;" vertex="1" parent="1">
          <mxGeometry x="-580" y="292" width="160" height="68" as="geometry">
            <mxRectangle x="-520" y="462" width="90" height="30" as="alternateBounds" />
          </mxGeometry>
        </mxCell>
        <mxCell id="WMJdWiDeaOOaA5LN9KcR-39" value="请假申请，审批流程" style="swimlane;childLayout=stackLayout;resizeParent=1;resizeParentMax=0;startSize=20;horizontal=0;horizontalStack=1;" vertex="1" parent="1">
          <mxGeometry x="-400" y="1480" width="840" height="820" as="geometry">
            <mxRectangle x="-40" y="1370" width="40" height="50" as="alternateBounds" />
          </mxGeometry>
        </mxCell>
        <mxCell id="WMJdWiDeaOOaA5LN9KcR-46" value="员工" style="swimlane;startSize=20;" vertex="1" parent="WMJdWiDeaOOaA5LN9KcR-39">
          <mxGeometry x="20" width="200" height="820" as="geometry">
            <mxRectangle x="-120" y="1370" width="80" height="30" as="alternateBounds" />
          </mxGeometry>
        </mxCell>
        <mxCell id="WMJdWiDeaOOaA5LN9KcR-63" style="edgeStyle=none;rounded=0;orthogonalLoop=1;jettySize=auto;html=1;exitX=0.5;exitY=1;exitDx=0;exitDy=0;" edge="1" parent="WMJdWiDeaOOaA5LN9KcR-46" source="WMJdWiDeaOOaA5LN9KcR-57" target="WMJdWiDeaOOaA5LN9KcR-60">
          <mxGeometry relative="1" as="geometry" />
        </mxCell>
        <mxCell id="WMJdWiDeaOOaA5LN9KcR-57" value="" style="ellipse;html=1;shape=startState;fillColor=#000000;strokeColor=#ff0000;" vertex="1" parent="WMJdWiDeaOOaA5LN9KcR-46">
          <mxGeometry x="85" y="60" width="30" height="30" as="geometry" />
        </mxCell>
        <mxCell id="WMJdWiDeaOOaA5LN9KcR-60" value="提出申请" style="rounded=1;whiteSpace=wrap;html=1;" vertex="1" parent="WMJdWiDeaOOaA5LN9KcR-46">
          <mxGeometry x="55" y="150" width="90" height="40" as="geometry" />
        </mxCell>
        <mxCell id="WMJdWiDeaOOaA5LN9KcR-90" style="edgeStyle=none;rounded=0;orthogonalLoop=1;jettySize=auto;html=1;exitX=0;exitY=0.5;exitDx=0;exitDy=0;entryX=1;entryY=0.5;entryDx=0;entryDy=0;" edge="1" parent="WMJdWiDeaOOaA5LN9KcR-46" source="WMJdWiDeaOOaA5LN9KcR-83" target="WMJdWiDeaOOaA5LN9KcR-89">
          <mxGeometry relative="1" as="geometry" />
        </mxCell>
        <mxCell id="WMJdWiDeaOOaA5LN9KcR-83" value="决定是否申请" style="rounded=1;whiteSpace=wrap;html=1;" vertex="1" parent="WMJdWiDeaOOaA5LN9KcR-46">
          <mxGeometry x="100" y="335" width="90" height="40" as="geometry" />
        </mxCell>
        <mxCell id="WMJdWiDeaOOaA5LN9KcR-94" style="edgeStyle=none;rounded=0;orthogonalLoop=1;jettySize=auto;html=1;exitX=0.5;exitY=0;exitDx=0;exitDy=0;entryX=0;entryY=0.5;entryDx=0;entryDy=0;" edge="1" parent="WMJdWiDeaOOaA5LN9KcR-46" source="WMJdWiDeaOOaA5LN9KcR-89" target="WMJdWiDeaOOaA5LN9KcR-91">
          <mxGeometry relative="1" as="geometry">
            <Array as="points">
              <mxPoint x="40" y="280" />
              <mxPoint x="40" y="260" />
            </Array>
          </mxGeometry>
        </mxCell>
        <mxCell id="WMJdWiDeaOOaA5LN9KcR-98" style="edgeStyle=none;rounded=0;orthogonalLoop=1;jettySize=auto;html=1;exitX=0.5;exitY=1;exitDx=0;exitDy=0;entryX=0.5;entryY=0;entryDx=0;entryDy=0;" edge="1" parent="WMJdWiDeaOOaA5LN9KcR-46" source="WMJdWiDeaOOaA5LN9KcR-89" target="WMJdWiDeaOOaA5LN9KcR-97">
          <mxGeometry relative="1" as="geometry" />
        </mxCell>
        <mxCell id="WMJdWiDeaOOaA5LN9KcR-89" value="" style="rhombus;whiteSpace=wrap;html=1;" vertex="1" parent="WMJdWiDeaOOaA5LN9KcR-46">
          <mxGeometry x="20" y="335" width="40" height="40" as="geometry" />
        </mxCell>
        <mxCell id="WMJdWiDeaOOaA5LN9KcR-91" value="修改申请" style="rounded=1;whiteSpace=wrap;html=1;" vertex="1" parent="WMJdWiDeaOOaA5LN9KcR-46">
          <mxGeometry x="60" y="240" width="90" height="40" as="geometry" />
        </mxCell>
        <mxCell id="WMJdWiDeaOOaA5LN9KcR-97" value="" style="ellipse;html=1;shape=endState;fillColor=#000000;strokeColor=#ff0000;" vertex="1" parent="WMJdWiDeaOOaA5LN9KcR-46">
          <mxGeometry x="25" y="430" width="30" height="30" as="geometry" />
        </mxCell>
        <mxCell id="WMJdWiDeaOOaA5LN9KcR-100" value="【否】" style="text;html=1;align=center;verticalAlign=middle;resizable=0;points=[];autosize=1;strokeColor=none;fillColor=none;" vertex="1" parent="WMJdWiDeaOOaA5LN9KcR-46">
          <mxGeometry x="40" y="385" width="60" height="30" as="geometry" />
        </mxCell>
        <mxCell id="WMJdWiDeaOOaA5LN9KcR-96" value="【是】" style="text;html=1;align=center;verticalAlign=middle;resizable=0;points=[];autosize=1;strokeColor=none;fillColor=none;" vertex="1" parent="WMJdWiDeaOOaA5LN9KcR-46">
          <mxGeometry x="27" y="290" width="60" height="30" as="geometry" />
        </mxCell>
        <mxCell id="WMJdWiDeaOOaA5LN9KcR-44" value="部门经理" style="swimlane;startSize=20;" vertex="1" parent="WMJdWiDeaOOaA5LN9KcR-39">
          <mxGeometry x="220" width="220" height="820" as="geometry" />
        </mxCell>
        <mxCell id="WMJdWiDeaOOaA5LN9KcR-65" value="" style="edgeStyle=none;rounded=0;orthogonalLoop=1;jettySize=auto;html=1;entryX=0.5;entryY=0;entryDx=0;entryDy=0;" edge="1" parent="WMJdWiDeaOOaA5LN9KcR-44" source="WMJdWiDeaOOaA5LN9KcR-61" target="WMJdWiDeaOOaA5LN9KcR-80">
          <mxGeometry relative="1" as="geometry">
            <mxPoint x="90" y="250" as="targetPoint" />
          </mxGeometry>
        </mxCell>
        <mxCell id="WMJdWiDeaOOaA5LN9KcR-61" value="审批" style="rounded=1;whiteSpace=wrap;html=1;" vertex="1" parent="WMJdWiDeaOOaA5LN9KcR-44">
          <mxGeometry x="65" y="150" width="90" height="40" as="geometry" />
        </mxCell>
        <mxCell id="WMJdWiDeaOOaA5LN9KcR-80" value="" style="rhombus;whiteSpace=wrap;html=1;" vertex="1" parent="WMJdWiDeaOOaA5LN9KcR-44">
          <mxGeometry x="75" y="320" width="70" height="70" as="geometry" />
        </mxCell>
        <mxCell id="WMJdWiDeaOOaA5LN9KcR-85" value="【拒绝】" style="text;html=1;align=center;verticalAlign=middle;resizable=0;points=[];autosize=1;strokeColor=none;fillColor=none;" vertex="1" parent="WMJdWiDeaOOaA5LN9KcR-44">
          <mxGeometry x="15" y="310" width="70" height="30" as="geometry" />
        </mxCell>
        <mxCell id="WMJdWiDeaOOaA5LN9KcR-86" value="【同意】" style="text;html=1;align=center;verticalAlign=middle;resizable=0;points=[];autosize=1;strokeColor=none;fillColor=none;" vertex="1" parent="WMJdWiDeaOOaA5LN9KcR-44">
          <mxGeometry x="140" y="310" width="70" height="30" as="geometry" />
        </mxCell>
        <mxCell id="WMJdWiDeaOOaA5LN9KcR-40" value="副总经理" style="swimlane;startSize=20;" vertex="1" parent="WMJdWiDeaOOaA5LN9KcR-39">
          <mxGeometry x="440" width="200" height="820" as="geometry">
            <mxRectangle x="20" width="40" height="480" as="alternateBounds" />
          </mxGeometry>
        </mxCell>
        <mxCell id="WMJdWiDeaOOaA5LN9KcR-87" value="审批" style="rounded=1;whiteSpace=wrap;html=1;" vertex="1" parent="WMJdWiDeaOOaA5LN9KcR-40">
          <mxGeometry x="80" y="335" width="90" height="40" as="geometry" />
        </mxCell>
        <mxCell id="WMJdWiDeaOOaA5LN9KcR-41" value="总经理" style="swimlane;startSize=20;" vertex="1" parent="WMJdWiDeaOOaA5LN9KcR-39">
          <mxGeometry x="640" width="200" height="820" as="geometry" />
        </mxCell>
        <mxCell id="WMJdWiDeaOOaA5LN9KcR-62" style="edgeStyle=none;rounded=0;orthogonalLoop=1;jettySize=auto;html=1;exitX=1;exitY=0.5;exitDx=0;exitDy=0;entryX=0;entryY=0.5;entryDx=0;entryDy=0;" edge="1" parent="WMJdWiDeaOOaA5LN9KcR-39" source="WMJdWiDeaOOaA5LN9KcR-60" target="WMJdWiDeaOOaA5LN9KcR-61">
          <mxGeometry relative="1" as="geometry" />
        </mxCell>
        <mxCell id="WMJdWiDeaOOaA5LN9KcR-84" style="edgeStyle=none;rounded=0;orthogonalLoop=1;jettySize=auto;html=1;exitX=0;exitY=0.5;exitDx=0;exitDy=0;entryX=1;entryY=0.5;entryDx=0;entryDy=0;" edge="1" parent="WMJdWiDeaOOaA5LN9KcR-39" source="WMJdWiDeaOOaA5LN9KcR-80" target="WMJdWiDeaOOaA5LN9KcR-83">
          <mxGeometry relative="1" as="geometry" />
        </mxCell>
        <mxCell id="WMJdWiDeaOOaA5LN9KcR-88" style="edgeStyle=none;rounded=0;orthogonalLoop=1;jettySize=auto;html=1;exitX=1;exitY=0.5;exitDx=0;exitDy=0;entryX=0;entryY=0.5;entryDx=0;entryDy=0;" edge="1" parent="WMJdWiDeaOOaA5LN9KcR-39" source="WMJdWiDeaOOaA5LN9KcR-80" target="WMJdWiDeaOOaA5LN9KcR-87">
          <mxGeometry relative="1" as="geometry" />
        </mxCell>
        <mxCell id="WMJdWiDeaOOaA5LN9KcR-101" style="edgeStyle=none;rounded=0;orthogonalLoop=1;jettySize=auto;html=1;exitX=1;exitY=0.5;exitDx=0;exitDy=0;entryX=0;entryY=0.5;entryDx=0;entryDy=0;" edge="1" parent="WMJdWiDeaOOaA5LN9KcR-39" source="WMJdWiDeaOOaA5LN9KcR-91" target="WMJdWiDeaOOaA5LN9KcR-61">
          <mxGeometry relative="1" as="geometry" />
        </mxCell>
        <mxCell id="WMJdWiDeaOOaA5LN9KcR-47" value="" style="ellipse;html=1;shape=startState;fillColor=#000000;strokeColor=#ff0000;" vertex="1" parent="1">
          <mxGeometry x="-1500" y="1980" width="30" height="30" as="geometry" />
        </mxCell>
      </root>
    </mxGraphModel>
  </diagram>
</mxfile>
